# xmcd
#
# Track frame offsets:
#	150
#	31475
#	57142
#	96045
#	120875
#	152510
#	188302
#	210750
#	240332
#	259400
#	282087
#
# Disc length: 4394
#
# Revision: 1
# Processed by: cddbd v1.5.1PL0 Copyright (c) Steve Scherf et al.
# Submitted via: CDex 1.50Beta6
# Normalized: r0:TDELIM( - )
#
DISCID=7b11280b
DTITLE=32 Gems from 32 Jazz - Disc 3
DYEAR=1900
DGENRE=Jazz
TTITLE0=Broadway - Richard Holmes
TTITLE1=Body and Soul - Al Cohn and Zoot Sims
TTITLE2=It's All Right With Me - Red Garland
TTITLE3=In Walked Bud - Bobby Hutcherson
TTITLE4=Bar Wars - Willis Jackson
TTITLE5=Scrapple from the Apple - Richie Cole and Phil Woods
TTITLE6=Blues to be There - Johnny Lytle
TTITLE7=Blues in the Guts - Red Rodney
TTITLE8=Bloomdido - Hank Jones
TTITLE9=Constellation - Sonny Stitt
TTITLE10=Song for my Father - Horace Silver
EXTD=
EXTT0=
EXTT1=
EXTT2=
EXTT3=
EXTT4=
EXTT5=
EXTT6=
EXTT7=
EXTT8=
EXTT9=
EXTT10=
PLAYORDER=
